<svg xmlns="http://www.w3.org/2000/svg" viewBox="0 0 600 380">
  <defs>
    <linearGradient id="bgPP" x1="0%" y1="0%" x2="100%" y2="100%">
      <stop offset="0%" style="stop-color:#FEF0F0"/>
      <stop offset="100%" style="stop-color:#FFD8D8"/>
    </linearGradient>
    <linearGradient id="clipboardGrad" x1="0%" y1="0%" x2="0%" y2="100%">
      <stop offset="0%" style="stop-color:#FFFFFF"/>
      <stop offset="100%" style="stop-color:#FFF0F0"/>
    </linearGradient>
  </defs>
  <rect width="600" height="380" fill="url(#bgPP)"/>
  <circle cx="520" cy="70" r="85" fill="#D42B2B" opacity="0.06"/>
  <circle cx="70" cy="310" r="70" fill="#D42B2B" opacity="0.06"/>

  <!-- Clipboard -->
  <rect x="160" y="95" width="180" height="220" rx="14" fill="url(#clipboardGrad)" stroke="#E8C0C0" stroke-width="1.5"/>
  <!-- Clipboard clip -->
  <rect x="220" y="88" width="60" height="22" rx="11" fill="#D42B2B" opacity="0.8"/>
  <rect x="232" y="84" width="36" height="14" rx="7" fill="#C0A090" opacity="0.6"/>
  <!-- Lines on clipboard -->
  <rect x="180" y="130" width="140" height="9" rx="4.5" fill="#D42B2B" opacity="0.18"/>
  <rect x="180" y="150" width="120" height="9" rx="4.5" fill="#D42B2B" opacity="0.15"/>
  <rect x="180" y="170" width="130" height="9" rx="4.5" fill="#D42B2B" opacity="0.15"/>
  <rect x="180" y="190" width="110" height="9" rx="4.5" fill="#D42B2B" opacity="0.15"/>
  <rect x="180" y="210" width="125" height="9" rx="4.5" fill="#D42B2B" opacity="0.12"/>
  <rect x="180" y="230" width="100" height="9" rx="4.5" fill="#D42B2B" opacity="0.12"/>
  <!-- Checkboxes -->
  <rect x="180" y="128" width="12" height="12" rx="3" fill="none" stroke="#D42B2B" stroke-width="1.5" opacity="0.5"/>
  <path d="M181,134 L184,137 L191,130" stroke="#D42B2B" stroke-width="2" fill="none" opacity="0.7"/>
  <rect x="180" y="148" width="12" height="12" rx="3" fill="none" stroke="#D42B2B" stroke-width="1.5" opacity="0.5"/>
  <path d="M181,154 L184,157 L191,150" stroke="#D42B2B" stroke-width="2" fill="none" opacity="0.7"/>
  <rect x="180" y="168" width="12" height="12" rx="3" fill="none" stroke="#D42B2B" stroke-width="1.5" opacity="0.5"/>

  <!-- Pen -->
  <rect x="365" y="110" width="14" height="100" rx="5" fill="#D42B2B" opacity="0.8" transform="rotate(30 372 160)"/>
  <polygon points="365,210 373,225 381,210" fill="#D42B2B" opacity="0.8" transform="rotate(30 373 217)"/>
  <polygon points="366,222 373,225 380,222" fill="#4A2020" opacity="0.6" transform="rotate(30 373 223)"/>

  <!-- Stethoscope -->
  <path d="M390,195 Q420,175 440,195 Q460,215 455,245 Q450,265 430,268 Q415,270 410,255 Q405,240 415,232 Q422,226 430,232" fill="none" stroke="#D42B2B" stroke-width="4" stroke-linecap="round" opacity="0.6"/>
  <circle cx="415" cy="232" r="14" fill="none" stroke="#D42B2B" stroke-width="3.5" opacity="0.6"/>
  <circle cx="415" cy="232" r="6" fill="#D42B2B" opacity="0.4"/>
  <circle cx="390" cy="195" r="8" fill="#D42B2B" opacity="0.5"/>
  <circle cx="440" cy="195" r="8" fill="#D42B2B" opacity="0.5"/>

  <text x="300" y="348" font-family="Georgia, serif" font-size="20" font-weight="bold" fill="#8B1A1A" text-anchor="middle" opacity="0.9">Pratique professionnelle</text>
</svg>
